<?xml version="1.0" encoding="UTF-8" standalone="no"?>
<!-- Created with Inkscape (http://www.inkscape.org/) -->

<svg
   xmlns:dc="http://purl.org/dc/elements/1.1/"
   xmlns:cc="http://creativecommons.org/ns#"
   xmlns:rdf="http://www.w3.org/1999/02/22-rdf-syntax-ns#"
   xmlns:svg="http://www.w3.org/2000/svg"
   xmlns="http://www.w3.org/2000/svg"
   xmlns:sodipodi="http://sodipodi.sourceforge.net/DTD/sodipodi-0.dtd"
   xmlns:inkscape="http://www.inkscape.org/namespaces/inkscape"
   id="svg2"
   version="1.1"
   inkscape:version="0.91 r13725"
   xml:space="preserve"
   width="675"
   height="312.5"
   viewBox="0 0 675 312.5"
   sodipodi:docname="stripe.svg"><metadata
     id="metadata8"><rdf:RDF><cc:Work
         rdf:about=""><dc:format>image/svg+xml</dc:format><dc:type
           rdf:resource="http://purl.org/dc/dcmitype/StillImage" /><dc:title></dc:title></cc:Work></rdf:RDF></metadata><defs
     id="defs6"><clipPath
       clipPathUnits="userSpaceOnUse"
       id="clipPath16"><path
         d="M 0,250 540,250 540,0 0,0 0,250 Z"
         id="path18"
         inkscape:connector-curvature="0" /></clipPath></defs><sodipodi:namedview
     pagecolor="#ffffff"
     bordercolor="#666666"
     borderopacity="1"
     objecttolerance="10"
     gridtolerance="10"
     guidetolerance="10"
     inkscape:pageopacity="0"
     inkscape:pageshadow="2"
     inkscape:window-width="956"
     inkscape:window-height="570"
     id="namedview4"
     showgrid="false"
     inkscape:zoom="0.45925926"
     inkscape:cx="337.5"
     inkscape:cy="156.25"
     inkscape:window-x="960"
     inkscape:window-y="609"
     inkscape:window-maximized="0"
     inkscape:current-layer="g10" /><g
     id="g10"
     inkscape:groupmode="layer"
     inkscape:label="Logo"
     transform="matrix(1.25,0,0,-1.25,0,312.5)"><g
       id="g12"><g
         id="g14"
         clip-path="url(#clipPath16)"><g
           id="g20"
           transform="translate(90.692,133.546)"><path
             d="m 0,0 c -9.733,3.6 -15.067,6.4 -15.067,10.8 0,3.733 3.067,5.867 8.534,5.867 10,0 20.266,-3.867 27.333,-7.334 L 24.8,34 c -5.6,2.667 -17.067,7.067 -32.933,7.067 -11.2,0 -20.534,-2.934 -27.2,-8.4 -6.934,-5.734 -10.534,-14 -10.534,-24 0,-18.134 11.067,-25.867 29.067,-32.4 11.6,-4.134 15.467,-7.067 15.467,-11.6 0,-4.4 -3.734,-6.934 -10.534,-6.934 -8.4,0 -22.266,4.134 -31.333,9.467 l -4,-24.933 c 7.733,-4.4 22.133,-8.934 37.067,-8.934 11.866,0 21.733,2.8 28.4,8.134 C 25.733,-52.667 29.6,-44 29.6,-32.8 29.6,-14.267 18.267,-6.533 0,0 m 94.717,14.533 4,24.534 -21.117,0 0,29.782 -28.392,-4.672 -4.1,-25.11 -9.986,-1.62 -3.738,-22.914 13.683,0 0,-48.133 c 0,-12.533 3.2,-21.2 9.733,-26.533 5.467,-4.4 13.333,-6.534 24.4,-6.534 8.533,0 13.733,1.467 17.333,2.4 l 0,26 c -2,-0.533 -6.533,-1.466 -9.6,-1.466 -6.533,0 -9.333,3.333 -9.333,10.933 l 0,43.333 17.117,0 z m 63.416,25.966 C 148.8,40.499 141.333,35.6 138.4,26.8 l -2,12.267 -28.933,0 0,-103.734 33.066,0 0,67.334 c 4.134,5.066 10,6.899 18,6.899 1.734,0 3.6,0 5.867,-0.4 l 0,30.533 c -2.267,0.534 -4.267,0.8 -6.267,0.8 m 30.934,8.834 c 9.6,0 17.333,7.867 17.333,17.467 0,9.733 -7.733,17.467 -17.333,17.467 -9.734,0 -17.467,-7.734 -17.467,-17.467 0,-9.6 7.733,-17.467 17.467,-17.467 M 172.4,39.067 l 33.2,0 0,-103.733 -33.2,0 0,103.733 z m 127.283,-9.334 c -5.867,7.6 -14,11.334 -24.4,11.334 -9.6,0 -18,-4 -25.867,-12.4 l -1.733,10.4 -29.067,0 0,-142.134 33.067,5.467 0,33.333 c 5.066,-1.6 10.266,-2.4 14.933,-2.4 8.267,0 20.267,2.134 29.6,12.267 8.933,9.733 13.467,24.8 13.467,44.667 0,17.6 -3.334,30.933 -10,39.466 m -27.467,-64 c -2.667,-5.066 -6.8,-7.733 -11.6,-7.733 -3.333,0 -6.267,0.667 -8.933,2 l 0,49.333 c 5.6,5.867 10.666,6.534 12.533,6.534 8.4,0 12.533,-9.067 12.533,-26.8 0,-10.134 -1.466,-18 -4.533,-23.334 m 132.267,22.4 c 0,16.534 -3.6,29.6 -10.667,38.8 -7.2,9.334 -18,14.134 -31.733,14.134 -28.134,0 -45.6,-20.8 -45.6,-54.134 0,-18.666 4.666,-32.666 13.866,-41.6 8.267,-8 20.134,-12 35.467,-12 14.133,0 27.2,3.334 35.467,8.8 l -3.6,22.667 c -8.134,-4.4 -17.6,-6.8 -28.267,-6.8 -6.4,0 -10.8,1.333 -14,4.133 -3.467,2.934 -5.467,7.734 -6.133,14.534 l 54.8,0 c 0.133,1.6 0.4,9.066 0.4,11.466 m -55.467,8.8 c 0.933,14.8 4.933,21.734 12.533,21.734 7.467,0 11.334,-7.067 11.867,-21.734 l -24.4,0 z"
             style="fill:#231f20;fill-opacity:1;fill-rule:nonzero;stroke:none"
             id="path22"
             inkscape:connector-curvature="0" /></g></g></g></g></svg>