<?xml version="1.0" encoding="UTF-8" standalone="no"?>
<!-- Created with Inkscape (http://www.inkscape.org/) -->

<svg
   xmlns:dc="http://purl.org/dc/elements/1.1/"
   xmlns:cc="http://creativecommons.org/ns#"
   xmlns:rdf="http://www.w3.org/1999/02/22-rdf-syntax-ns#"
   xmlns:svg="http://www.w3.org/2000/svg"
   xmlns="http://www.w3.org/2000/svg"
   xmlns:sodipodi="http://sodipodi.sourceforge.net/DTD/sodipodi-0.dtd"
   xmlns:inkscape="http://www.inkscape.org/namespaces/inkscape"
   width="210"
   height="220"
   id="svg3044"
   version="1.1"
   inkscape:version="0.48.4 r9939"
   sodipodi:docname="cock.svgz"
   inkscape:export-filename="/home/gex/Desktop/cockvector.png"
   inkscape:export-xdpi="90"
   inkscape:export-ydpi="90">
  <defs
     id="defs3046" />
  <sodipodi:namedview
     id="base"
     pagecolor="#ffffff"
     bordercolor="#666666"
     borderopacity="1.0"
     inkscape:pageopacity="0.0"
     inkscape:pageshadow="2"
     inkscape:zoom="5.6568543"
     inkscape:cx="92.803766"
     inkscape:cy="157.43327"
     inkscape:document-units="px"
     inkscape:current-layer="layer2"
     showgrid="false"
     showguides="true"
     inkscape:guide-bbox="true"
     guidetolerance="10000"
     inkscape:window-width="1920"
     inkscape:window-height="1106"
     inkscape:window-x="0"
     inkscape:window-y="21"
     inkscape:window-maximized="1"
     showborder="true"
     borderlayer="false"
     inkscape:showpageshadow="true">
    <sodipodi:guide
       position="0,0"
       orientation="0,697.09003"
       id="guide3999" />
    <sodipodi:guide
       position="697.09003,0"
       orientation="-1052.3622,0"
       id="guide4001" />
    <sodipodi:guide
       position="697.09003,1052.3622"
       orientation="0,-697.09003"
       id="guide4003" />
    <sodipodi:guide
       position="0,1052.3622"
       orientation="1052.3622,0"
       id="guide4005" />
  </sodipodi:namedview>
  <metadata
     id="metadata3049">
    <rdf:RDF>
      <cc:Work
         rdf:about="">
        <dc:format>image/svg+xml</dc:format>
        <dc:type
           rdf:resource="http://purl.org/dc/dcmitype/StillImage" />
        <dc:title></dc:title>
      </cc:Work>
    </rdf:RDF>
  </metadata>
  <g
     inkscape:groupmode="layer"
     id="layer2"
     inkscape:label="Layer"
     style="display:inline"
     transform="translate(0,-832.36149)">
    <path
       style="fill:none;stroke:#000000;stroke-width:2.70000005;stroke-linecap:butt;stroke-linejoin:miter;stroke-miterlimit:4;stroke-opacity:1;stroke-dasharray:none"
       d="m 36.516578,1051.5404 c 0,0 0.50508,-8.8389 8.33376,-32.0724"
       id="path3060"
       inkscape:connector-curvature="0" />
    <path
       style="fill:none;stroke:#000000;stroke-width:2.70000005;stroke-linecap:butt;stroke-linejoin:miter;stroke-miterlimit:4;stroke-opacity:1;stroke-dasharray:none"
       d="m 52.426478,1023.0036 c 0,0 -32.57742,-12.6269 -37.88072,-35.35536 -5.3033005,-22.72843 -3.53553,-30.30458 -3.53553,-30.30458 l -7.5761505,-0.50508 c 0,0 -4.79822,22.98098 0.50508,33.84011 5.3033,10.85911 21.4657405,21.97081 21.4657405,21.97081 l 2.77792,-4.0406"
       id="path3068"
       inkscape:connector-curvature="0" />
    <path
       style="fill:none;stroke:#000000;stroke-width:2.0999999;stroke-linecap:butt;stroke-linejoin:miter;stroke-miterlimit:4;stroke-opacity:1;stroke-dasharray:none"
       d="m 3.7411175,956.72894 5.875,-23.375 c 18.7500005,-5.125 18.0000005,-5.5 39.7500005,1.5 21.75,7 28.375,10.875 57.625002,-9.12499 29.25,-20 62.125,-12.5 72.75,-0.625 10.625,11.87499 24,25.87499 24,25.87499 l 0,0 0,0"
       id="path3074"
       inkscape:connector-curvature="0" />
    <path
       style="fill:none;stroke:#000000;stroke-width:2.70000005;stroke-linecap:butt;stroke-linejoin:miter;stroke-miterlimit:4;stroke-opacity:1;stroke-dasharray:none"
       d="m 52.241118,1022.7289 c 0,0 -12,-21.375 -11.125,-47.74996 0.875,-26.375 5.25,-41.125 5.25,-41.125"
       id="path3076"
       inkscape:connector-curvature="0" />
    <path
       style="fill:none;stroke:#000000;stroke-width:2.70000005;stroke-linecap:butt;stroke-linejoin:miter;stroke-miterlimit:4;stroke-opacity:1;stroke-dasharray:none"
       d="m 55.116118,936.60394 -11,8.625"
       id="path3078"
       inkscape:connector-curvature="0" />
    <path
       style="fill:none;stroke:#000000;stroke-width:2.70000005;stroke-linecap:butt;stroke-linejoin:miter;stroke-miterlimit:4;stroke-opacity:1;stroke-dasharray:none"
       d="m 121.86612,917.97895 -0.25,20.62499 c 0,0 -7.625,-1.625 -10.875,-4.875 -3.25,-3.25 -5.5,-6.74999 -5.5,-6.74999"
       id="path3080"
       inkscape:connector-curvature="0" />
    <path
       style="fill:none;stroke:#000000;stroke-width:2.70000005;stroke-linecap:butt;stroke-linejoin:miter;stroke-miterlimit:4;stroke-opacity:1;stroke-dasharray:none"
       d="m 191.24112,901.60395 c 0,0 2.375,18.75 5,24.625 2.625,5.87499 5.875,15.37499 6.375,18.37499 0.5,3 2,9.875 2,9.875 0,0 5,-10.625 3.625,-22.25 -1.375,-11.62499 -5.5,-19.37499 -8.25,-22.62499 -2.75,-3.25 -8.75,-8 -8.75,-8 z"
       id="path3082"
       inkscape:connector-curvature="0" />
    <path
       style="fill:none;stroke:#000000;stroke-width:1px;stroke-linecap:butt;stroke-linejoin:miter;stroke-opacity:1"
       d="m 191.36612,902.22895 c 0,0 -1.75,-25.75 -3.125,-30.75 -1.375,-5 -3.25,-8.25 -7.625,-12 -4.375,-3.75 -19,-12.875 -28.25,-15.625 -9.25,-2.75 -23.375,-9.25 -43.25,-9.25 -19.875003,0 -41.250002,5.25 -58.875002,13.25 -17.625,8 -36.625,27.75 -38.875,37.125 -2.2500005,9.375 -5.2500005,18.375 -3.3750005,31.375 1.875,12.99999 1.75,16.99999 1.75,16.99999"
       id="path3084"
       inkscape:connector-curvature="0" />
    <path
       style="fill:#000000;stroke:#000000;stroke-width:1px;stroke-linecap:butt;stroke-linejoin:miter;stroke-opacity:1"
       d="m 107.36612,851.97895 c 0,0 4.125,-0.625 6.25,3.625 2.125,4.25 2.625,2.875 2.5,7.125 -0.125,4.25 0,6.25 -2.625,8.875 -2.625,2.625 -4.25,3.25 -6.5,3.25 -2.25,0 -4.75,-0.125 -7.125003,-2.125 -2.375,-2 -3.375,-6.125 -3.375,-9.375 0,-3.25 1.375,-6.625 3.375,-8.375 2.000003,-1.75 4.000003,-3.125 7.500003,-3 z"
       id="path3094"
       inkscape:connector-curvature="0" />
    <path
       style="fill:none;stroke:#000000;stroke-width:1px;stroke-linecap:butt;stroke-linejoin:miter;stroke-opacity:1"
       d="m 107.99112,845.10395 c 0,0 5,0.375 9.5,3.625 4.5,3.25 5.625,9.25 5.25,14.5 -0.375,5.25 -0.5,10.5 -5.125,14.75 -4.625,4.25 -6.875,4.75 -12.625,4.75 -5.750003,0 -8.125003,-1.75 -11.375003,-4.625 -3.25,-2.875 -4.875,-7.625 -4.625,-12.625 0.25,-5 1.5,-9.625 5.5,-13.375 4,-3.75 6.875003,-7.25 13.500003,-7 z"
       id="path3096"
       inkscape:connector-curvature="0" />
    <path
       style="fill:#000000;fill-opacity:1;stroke:#000000;stroke-width:0.08838835;stroke-opacity:1"
       d="m 23.821468,1010.9151 c -9.44987,-7.0657 -16.5775905,-14.5444 -19.3948305,-20.34982 -1.39602,-2.87674 -2.12638,-6.28675 -2.42721,-11.33239 -0.31484,-5.28061 0.26084,-12.96662 1.51631,-20.24435 l 0.27826,-1.61309 0.53787,0.006 c 0.29583,0.003 1.79077,0.0928 3.3221,0.19888 l 2.7842305,0.19287 -0.0271,0.22097 c -0.0149,0.12153 -0.0491,1.41098 -0.076,2.86544 -0.0814,4.39722 0.28753,8.47686 1.34755,14.90062 0.70228,4.25577 1.94813,10.27196 2.69065,12.99308 1.33061,4.87632 3.80023,9.36036 7.69153,13.96539 1.00051,1.184 4.03585,4.2975 5.10604,5.2375 l 0.55761,0.4898 -1.20783,1.7546 c -0.66431,0.9651 -1.21695,1.7647 -1.22809,1.777 -0.0111,0.012 -0.67314,-0.4659 -1.4711,-1.0625 l 0,0 z"
       id="path3102"
       inkscape:connector-curvature="0" />
    <path
       style="fill:none;stroke:#000000;stroke-width:1px;stroke-linecap:butt;stroke-linejoin:miter;stroke-opacity:1"
       d="m 53.741118,872.72895 c 0,0 -0.875,-9.75 4.5,-15.875 5.375,-6.125 9.75,-7.25 13.25,-5.625 3.5,1.625 6.5,3.25 8.25,7.875 1.749999,4.625 1.124999,8 0.375,8.5 -0.75,0.5 -3.125,0.375 -4,-1.125 -0.875,-1.5 -0.75,-5.125 -5.625,-4.875 -4.875,0.25 -5.5,0 -8.25,2.875 -2.75,2.875 -2.375,2.25 -2.375,7.875 0,5.625 1.25,6.75 3,8.875 1.75,2.125 3.875,3.625 8.375,3.5 4.5,-0.125 5,-1 6.375,-3.25 1.375,-2.25 1.375,-4.25 2.874999,-4.125 1.5,0.125 2.5,-1.25 1.5,5.75 -1,7 -4.749999,9.625 -8.249999,9.75 -3.5,0.125 -8.375,0.625 -12.875,-3.25 -4.5,-3.875 -5.83109,-4.62443 -6.8737,-11.03661 -0.4545,-2.79527 -0.2513,-5.83839 -0.2513,-5.83839 z"
       id="path3104"
       inkscape:connector-curvature="0"
       sodipodi:nodetypes="cssssssssssssssssc" />
    <path
       style="fill:none;stroke:#000000;stroke-width:1px;stroke-linecap:butt;stroke-linejoin:miter;stroke-opacity:1"
       d="m 128.81927,867.6295 c 0,0 -0.0884,-7.15946 4.77297,-14.58408 4.86136,-7.42462 12.19759,-7.68978 15.20279,-3.8007 3.00521,3.88909 4.41942,5.39169 4.33103,8.66206 -0.0884,3.27037 -2.12132,7.68979 -4.24264,3.35876 -2.12132,-4.33103 -0.79549,-5.56847 -6.45235,-5.56847 -5.65685,0 -7.42462,4.06587 -8.04334,8.57367 -0.61872,4.50781 -0.26516,9.01561 6.27557,11.66727 6.54074,2.65165 8.75045,-5.30331 10.34144,-5.39169 1.59099,-0.0884 1.5026,1.85615 -0.35355,7.86656 -1.85616,6.01041 -11.66726,6.8059 -16.79379,1.59099 -5.12652,-5.21491 -3.53553,-2.91682 -4.41942,-5.56847 -0.88388,-2.65165 -0.61871,-6.8059 -0.61871,-6.8059 z"
       id="path3114"
       inkscape:connector-curvature="0" />
    <path
       style="fill:none;stroke:#000000;stroke-width:1px;stroke-linecap:butt;stroke-linejoin:miter;stroke-opacity:1"
       d="m 165.05358,858.60653 c 0,0 -0.25234,0.11425 -0.39244,0.7856 -0.44056,2.11106 -1.47082,7.18148 -2.44321,12.94878 -0.90429,6.1909 -1.69158,11.8725 -1.98595,14.01207 -0.0797,0.57911 0.0314,0.78824 0.0314,0.78824 l 0.47076,0.34816 3.11144,1.18234 0.66044,0.0163 0.46614,-0.51442 3.4387,-5.86601 0.75764,-0.77902 0.94145,-0.1716 3.52794,0.37993 0.92231,0.36619 0.46581,0.89008 2.91204,13.47757 0.29516,0.59024 0.40702,0.27661 2.5198,0.69762 0.61362,-0.0475 0.17542,-0.74566 -2.57171,-16.16685 c -0.0312,-0.9375 -0.0506,-0.86785 0.13689,-2.4616 0.21875,-1.59375 0.22647,-1.59798 0.57022,-2.41048 l 3.56663,-6.45958 0.20772,-0.71282 -0.12966,-0.65286 -1.36582,-2.55124 -0.60463,-0.47581 -0.59599,0.35047 -4.35243,8.41712 -0.53757,0.64841 -0.84508,0.0364 -6.40181,-1.10138 -0.58473,-0.30658 -0.14233,-0.59763 2.21545,-11.38283 -0.0641,-0.80113 -0.51702,-0.5046 -3.76107,-1.31068 z"
       id="path3116"
       inkscape:connector-curvature="0"
       sodipodi:nodetypes="cscsccccccccccccccccccccccccccccccccccccc" />
    <path
       style="fill:none;stroke:#000000;stroke-width:3.20000005;stroke-linecap:butt;stroke-linejoin:miter;stroke-miterlimit:4;stroke-opacity:1;stroke-dasharray:none"
       d="m 90.635497,995.17388 c 0,0 -1.06066,5.83362 3.18198,5.83362 4.24264,0 4.06586,0 6.01041,-1.41421 1.944543,-1.41421 3.005203,-2.12132 3.005203,-2.12132 0,0 1.94455,3.53553 6.54074,3.71233 4.59619,0.1768 4.06586,0 6.01041,-1.59101 1.94454,-1.59099 1.94454,-1.76776 1.94454,-1.76776"
       id="path3136"
       inkscape:connector-curvature="0" />
    <path
       style="fill:none;stroke:#000000;stroke-width:1px;stroke-linecap:butt;stroke-linejoin:miter;stroke-opacity:1"
       d="m 69.991118,983.22894 c 0,0 -9.5,-4.25 -10.5,-19.5 -1,-15.25 7.5,-26 7.5,-26 0,0 -1.125,6.75 0.625,9.125 1.75,2.375 14.124999,2.375 17.749999,0.125 3.625,-2.25 12,-19.99999 12,-19.99999 0,0 3.875003,14.62499 4.000003,26.37499 0.125,11.75 1.375,16 -3.125003,22.875 -4.5,6.875 -4.5,6.875 -4.5,6.875 0,0 3.75,-6.875 2.625,-10 -1.125,-3.125 -3.125,-4.875 -4.75,-4.75 -1.625,0.125 -1.75,8.5 -5.625,10.625 -3.875,2.125 -4.75,2 -8.124999,1.5 -3.375,-0.5 -4.375,-1.625 -5.5,-4 -1.125,-2.375 -2,-5.625 -2,-5.625 0,0 -3.875,3.625 -3.75,5.875 0.125,2.25 3.375,6.5 3.375,6.5 z"
       id="path3906"
       inkscape:connector-curvature="0" />
    <path
       style="fill:#000000;fill-opacity:1;stroke:#000000;stroke-width:0.2375;stroke-miterlimit:4;stroke-opacity:1;stroke-dasharray:none"
       d="m 67.202588,980.74657 c -3.9683,-3.59718 -6.47327,-9.13319 -7.16085,-15.82557 -0.19875,-1.9345 -0.17185,-6.0158 0.0522,-7.92058 0.63091,-5.36362 2.30147,-10.60107 4.85576,-15.22354 1.07929,-1.95318 1.29752,-2.04406 1.23302,-0.51348 -0.0512,1.21386 0.16683,3.51881 0.40802,4.31434 0.49489,1.63234 1.15005,2.25207 2.94688,2.78746 2.15275,0.64145 6.72723,0.87961 10,0.52064 3.539379,-0.38822 5.549959,-1.02911 6.764299,-2.15616 1.54531,-1.43424 4.33273,-5.76265 7.24696,-11.25334 l 0.67624,-1.27408 1.0625,-0.59001 c 0.58437,-0.32451 1.41981,-0.80586 1.85652,-1.06967 0.43672,-0.26381 0.83503,-0.47965 0.88514,-0.47965 0.18005,0 1.26023,5.68407 1.876623,9.875 0.67685,4.60207 0.87978,7.18455 1.07064,13.62499 0.27865,9.40285 0.24104,11.3997 -0.26071,13.84442 -0.47148,2.29716 -1.378883,4.33245 -3.178213,7.12868 -0.58438,0.90813 -1.09879,1.65132 -1.14313,1.65153 -0.0443,2.5e-4 0.0507,-0.51557 0.21111,-1.14617 0.57085,-2.24351 0.527,-3.31125 -0.20278,-4.93779 -1.19247,-2.65779 -3.28894,-4.41885 -4.90055,-4.11651 -0.65303,0.12251 -0.99548,0.68528 -1.60548,2.63834 -2.00861,6.43112 -2.50852,7.2322 -5.38159,8.62373 -2.27307,1.10092 -3.30345,1.25275 -5.949289,0.87664 -3.35644,-0.47713 -4.45157,-1.14285 -5.5782,-3.39093 -0.58319,-1.16371 -1.53115,-3.6739 -2.01215,-5.32819 -0.1949,-0.67031 -0.39354,-1.21875 -0.44143,-1.21875 -0.14063,0 -2.01145,1.99584 -2.64456,2.82128 -0.75098,0.97912 -1.42291,2.21238 -1.60563,2.94696 -0.25451,1.02321 0.29998,2.71692 1.62069,4.95051 0.21343,0.36094 0.34472,0.65563 0.29176,0.65487 -0.053,-7.5e-4 -0.50016,-0.3675 -0.9938,-0.81497 l 0,0 z"
       id="path3908"
       inkscape:connector-curvature="0" />
    <path
       style="fill:none;stroke:#000000;stroke-width:1px;stroke-linecap:butt;stroke-linejoin:miter;stroke-opacity:1"
       d="m 121.74112,927.72894 c 0,0 9.75,-12.74999 17.375,-12.62499 7.625,0.125 12.25,0.875 16.375,9.125 4.125,8.24999 7,10.37499 7.75,25.99999 0.75,15.625 0.875,16.875 -2.25,22.75 -3.125,5.875 -5.75,8.75 -5.75,8.75 0,0 0.875,-5 0.75,-7.5 -0.125,-2.5 -2.25,-5.5 -2.25,-5.5 0,0 -1.5,4.375 -4.75,7.5 -3.25,3.125 -4.125,3.625 -6.375,3.625 -2.25,0 -5.75,-2.25 -6.875,-5 -1.125,-2.75 -2.125,-5.875 -2.125,-5.875 0,0 -2.25,3.75 -2.25,6.5 0,2.75 3.75,7.125 3.75,7.125 0,0 -4.875,-0.875 -7.5,-7.5 -2.625,-6.625 -1.875,-14.875 -2,-19.875 -0.125,-5 1.75,-12 2.75,-14.5 1,-2.5 2.25,-5.125 2.25,-5.125 0,0 -1.875,7.75 0.625,9.75 2.5,2 15,-1.5 16.75,-2.25 1.75,-0.75 6,-12.625 5.125,-16.24999 -0.875,-3.625 -11.375,-9 -16.625,-6.75 -5.25,2.25 -6.75,3 -9.625,6 -2.875,2.99999 -5.25,7.62499 -5.25,7.62499"
       id="path3910"
       inkscape:connector-curvature="0" />
    <path
       style="fill:#000000;fill-opacity:1;stroke:#000000;stroke-width:0.2375;stroke-miterlimit:4;stroke-opacity:1;stroke-dasharray:none"
       d="m 132.60032,980.96712 c -1.64058,-1.10627 -2.91863,-2.61535 -3.94456,-4.65759 -1.44862,-2.88368 -2.21823,-6.39019 -2.49658,-11.375 -0.16709,-2.99228 -0.16578,-10.52623 0.002,-12.375 0.34797,-3.8307 1.47479,-8.77162 2.71533,-11.90625 0.31969,-0.80781 0.61152,-1.46885 0.6485,-1.46898 0.037,-1.2e-4 0.0501,0.69196 0.0292,1.53795 -0.0593,2.39841 0.38284,4.02574 1.31653,4.84554 1.45615,1.27851 5.90381,1.01432 12.909,-0.76681 3.18714,-0.81036 4.36712,-1.23461 4.89189,-1.75882 0.89876,-0.89781 2.06456,-3.37221 3.23153,-6.85894 1.62693,-4.86098 2.12362,-8.44401 1.38759,-10.00984 -1.26621,-2.69376 -6.34546,-5.73559 -11.26101,-6.74393 -1.79014,-0.36722 -4.01323,-0.29728 -5.3125,0.16714 -2.42712,0.86757 -5.97341,2.66149 -7.44573,3.76649 -2.06348,1.54866 -4.61575,4.47797 -6.33194,7.26733 l -0.72233,1.17401 -0.0345,-1.94587 -0.0345,-1.94586 0.96008,-1.1815 c 0.52804,-0.64983 1.81562,-2.06523 2.86129,-3.14533 2.87141,-2.96597 5.62733,-5.21579 7.86648,-6.42189 2.88327,-1.55304 4.42861,-1.8139 8.70697,-1.46977 4.17442,0.33577 6.49822,1.21332 8.69217,3.28247 1.70309,1.60622 2.42465,2.66866 4.51319,6.64537 0.68603,1.30625 1.73168,3.28932 2.32367,4.40684 2.59645,4.9014 3.69773,8.65007 4.32392,14.71815 0.37632,3.64665 0.79177,12.56494 0.79195,17 1.2e-4,3.73412 -0.15421,5.17756 -0.74471,6.96423 -0.37875,1.14599 -1.77781,4.05283 -2.84486,5.91077 -0.87614,1.52555 -3.21357,5.06965 -3.50077,5.308 -0.18685,0.15508 -0.20126,0.14151 -0.13802,-0.12992 0.17216,-0.73887 0.44294,-3.66337 0.44397,-4.79509 0.001,-1.48857 -0.22809,-2.50912 -0.88051,-3.91632 -0.52344,-1.12898 -1.70877,-3.15417 -1.84613,-3.15417 -0.0473,0 -0.2206,0.35156 -0.3851,0.78125 -0.74793,1.95356 -2.08922,4.28486 -3.33989,5.80505 -1.01601,1.23497 -3.56316,3.5943 -4.48049,4.1501 -2.34717,1.42212 -5.51419,0.65128 -7.9287,-1.92984 -1.1013,-1.1773 -1.43806,-1.8953 -3.00665,-6.41056 l -0.8395,-2.41651 -0.88983,1.7349 c -1.55277,3.0274 -2.11508,5.24787 -1.72305,6.804 0.26549,1.05388 1.11786,2.8031 1.98585,4.07536 0.38695,0.56719 0.63472,1.02951 0.5506,1.02739 -0.0841,-0.002 -0.54315,-0.26698 -1.02005,-0.58855 l 0,0 z"
       id="path3912"
       inkscape:connector-curvature="0" />
    <path
       style="fill:none;stroke:#000000;stroke-width:2.70000005;stroke-linecap:butt;stroke-linejoin:miter;stroke-miterlimit:4;stroke-opacity:1;stroke-dasharray:none"
       d="m 189.984,936.30724 -4.33103,0.35355 c 0,0 10.08815,27.19315 5.83815,47.19315 -4.25,19.99996 -4.25,23.99996 -11.75,31.99996 -7.5,8 -13.75,8.5 -13.75,8.5"
       id="path3914"
       inkscape:connector-curvature="0" />
    <path
       style="fill:none;stroke:#000000;stroke-width:2.70000005;stroke-linecap:butt;stroke-linejoin:miter;stroke-miterlimit:4;stroke-opacity:1;stroke-dasharray:none"
       d="m 166.29593,1026.3308 -1.01647,-14.6725"
       id="path3916"
       inkscape:connector-curvature="0" />
    <path
       style="fill:none;stroke:#000000;stroke-width:2.70000005;stroke-linecap:butt;stroke-linejoin:miter;stroke-miterlimit:4;stroke-opacity:1;stroke-dasharray:none"
       d="m 169.83146,942.6712 c 0,0 2.91681,11.57887 2.82843,23.33452 -0.0884,11.75565 0.53033,19.53383 0.53033,19.53383 0,0 7.33623,4.33102 8.39689,6.09879 1.06066,1.76777 1.76777,3.09359 1.76777,3.09359 0,0 -10.48876,14.49697 -23.86376,21.24697 -13.375,6.75 -20.125,5.875 -20.125,5.875"
       id="path3918"
       inkscape:connector-curvature="0" />
    <path
       style="fill:none;stroke:#000000;stroke-width:1px;stroke-linecap:butt;stroke-linejoin:miter;stroke-opacity:1"
       d="m 150.49112,1019.8539 1.875,5.875 c 0,0 4.625,-3.375 7.25,-6.875 2.625,-3.5 3.25,-4.625 3.25,-4.625"
       id="path3920"
       inkscape:connector-curvature="0" />
    <path
       style="fill:#000000;fill-opacity:1;stroke:#000000;stroke-width:0.2375;stroke-miterlimit:4;stroke-opacity:1;stroke-dasharray:none"
       d="m 152.3584,1024.3175 c -0.98527,-3.0806 -1.3295,-4.1982 -1.3011,-4.2242 0.0184,-0.017 0.62404,-0.2525 1.34591,-0.5237 2.18647,-0.8215 4.0682,-1.654 6.5625,-2.9035 1.30625,-0.6543 2.42265,-1.2109 2.48089,-1.2368 0.49614,-0.2204 -2.70169,3.906 -4.28382,5.5277 -1.39421,1.4292 -4.26875,3.9542 -4.5015,3.9542 -0.0621,0 -0.19843,-0.2672 -0.30288,-0.5937 z"
       id="path3922"
       inkscape:connector-curvature="0" />
    <path
       style="fill:none;stroke:#000000;stroke-width:2.5;stroke-linecap:butt;stroke-linejoin:miter;stroke-miterlimit:4;stroke-opacity:1;stroke-dasharray:none"
       d="m 117.54975,983.19725 4.33103,1.63519"
       id="path3924"
       inkscape:connector-curvature="0"
       sodipodi:nodetypes="cc" />
    <path
       style="fill:none;stroke:#000000;stroke-width:2.70000005;stroke-linecap:butt;stroke-linejoin:miter;stroke-miterlimit:4;stroke-opacity:1;stroke-dasharray:none"
       d="m 148.08793,1020.5413 c 0,0 3.18198,9.3692 4.86135,18.1196 1.67938,8.7505 2.74004,12.8163 2.74004,12.8163"
       id="path3926"
       inkscape:connector-curvature="0" />
    <path
       style="fill:none;stroke:#000000;stroke-width:2.70000005;stroke-linecap:butt;stroke-linejoin:miter;stroke-miterlimit:4;stroke-opacity:1;stroke-dasharray:none"
       d="m 142.78462,1021.6904 3.27037,29.5217"
       id="path3928"
       inkscape:connector-curvature="0" />
    <path
       style="fill:none;stroke:#000000;stroke-width:2.70000005;stroke-linecap:butt;stroke-linejoin:miter;stroke-miterlimit:4;stroke-opacity:1;stroke-dasharray:none"
       d="m 47.116118,1011.2289 c 0,0 4,2.75 13.875,5.875 9.875,3.125 9.875,3.125 9.875,3.125 l 0,0"
       id="path3930"
       inkscape:connector-curvature="0" />
    <path
       style="fill:none;stroke:#000000;stroke-width:2.70000005;stroke-linecap:butt;stroke-linejoin:miter;stroke-miterlimit:4;stroke-opacity:1;stroke-dasharray:none"
       d="m 62.616118,1051.2289 -0.625,-34"
       id="path3932"
       inkscape:connector-curvature="0" />
    <path
       style="fill:none;stroke:#000000;stroke-width:2.70000005;stroke-linecap:butt;stroke-linejoin:miter;stroke-miterlimit:4;stroke-opacity:1;stroke-dasharray:none"
       d="m 70.491118,1020.1039 c 0,0 6.875,-3 11.749999,-2 4.875,1 11.375,3.75 20.500003,3.5 9.125,-0.25 10.875,-0.75 16.625,-3.75 5.75,-3 16.625,-2.625 18.125,-0.875 1.5,1.75 4.125,5.625 0.875,11.875 -3.25,6.25 -9.875,18.125 -13.625,18.125 -3.75,0 -14.625,-5.875 -14.625,-5.875 l -14.250003,0 c 0,0 -10.25,8.375 -14.625,8.625 -4.374999,0.25 -7.624999,-6.875 -7.749999,-9.625 -0.125,-2.75 -0.75,-4.875 -3.375,-7.25 -2.625,-2.375 -3.875,-6.75 -3.25,-9.25 0.625,-2.5 3.625,-3.5 3.625,-3.5 z"
       id="path3934"
       inkscape:connector-curvature="0" />
    <path
       style="fill:none;stroke:#000000;stroke-width:2.5999999;stroke-linecap:butt;stroke-linejoin:miter;stroke-miterlimit:4;stroke-opacity:1;stroke-dasharray:none"
       d="m 97.241117,1021.3539 c 0,0 0.875,12 0.875,15.875 0,3.875 -0.125,3.875 -0.125,3.875 l 0,0 0,0"
       id="path3936"
       inkscape:connector-curvature="0" />
    <path
       style="fill:none;stroke:#000000;stroke-width:2.5999999;stroke-linecap:butt;stroke-linejoin:miter;stroke-miterlimit:4;stroke-opacity:1;stroke-dasharray:none"
       d="m 110.36612,1021.4789 c 0,0 0.375,9.375 0.25,13 -0.125,3.625 -0.375,6.75 -0.375,6.75"
       id="path3938"
       inkscape:connector-curvature="0" />
    <path
       style="fill:none;stroke:#000000;stroke-width:2.70000005;stroke-linecap:butt;stroke-linejoin:miter;stroke-miterlimit:4;stroke-opacity:1;stroke-dasharray:none"
       d="m 121.86612,1027.7289 -11,4.5"
       id="path3940"
       inkscape:connector-curvature="0" />
    <path
       style="fill:none;stroke:#000000;stroke-width:2.70000005;stroke-linecap:butt;stroke-linejoin:miter;stroke-miterlimit:4;stroke-opacity:1;stroke-dasharray:none"
       d="m 85.241117,1032.6039 12.625,-1.875"
       id="path3942"
       inkscape:connector-curvature="0" />
    <path
       style="fill:none;stroke:#000000;stroke-width:1px;stroke-linecap:butt;stroke-linejoin:miter;stroke-opacity:1"
       d="m 90.116117,1045.4789 c 0,0 1.625,6.5 4.25,6 2.625,-0.5 9.625003,-8.5 9.625003,-8.5 0,0 6,8.25 9.375,8.375 3.375,0.125 5.25,-6.25 5.25,-6.25"
       id="path3944"
       inkscape:connector-curvature="0" />
    <path
       style="fill:#000000;fill-opacity:1;stroke:#000000;stroke-width:0.44194174;stroke-miterlimit:4;stroke-opacity:1;stroke-dasharray:none"
       d="m 93.541837,1050.9846 c -0.5867,-0.2426 -1.56783,-1.6483 -2.1848,-3.1304 -0.77633,-1.8648 -0.8375,-2.3785 -0.3204,-2.6911 0.2259,-0.1365 1.46005,-1.0314 2.74255,-1.9887 l 2.33181,-1.7405 6.896013,0 6.89601,0 3.14654,1.5682 c 1.7306,0.8625 3.56418,1.7473 4.07463,1.9663 0.51044,0.219 0.92807,0.482 0.92807,0.5844 0,0.5288 -1.51803,3.214 -2.30163,4.0714 -1.75301,1.9181 -3.07464,1.7458 -6.01385,-0.7839 -1.14276,-0.9835 -3.74378,-3.8626 -5.10528,-5.651 l -0.60445,-0.7939 -2.22398,2.3789 c -3.248003,3.4743 -6.294213,6.045 -7.438883,6.2777 -0.24307,0.049 -0.61313,0.019 -0.82235,-0.067 z"
       id="path3948"
       inkscape:connector-curvature="0" />
    <path
       style="fill:#000000;fill-opacity:1;stroke:#000000;stroke-width:0.56568545;stroke-miterlimit:4;stroke-opacity:1;stroke-dasharray:none"
       d="m 199.05918,112.17072 c -4.01166,-4.23641 -9.38868,-10.03275 -14.38577,-15.507621 -5.24422,-5.745621 -5.34643,-5.851664 -6.84299,-7.099405 -4.44044,-3.702181 -11.5413,-6.821125 -18.86614,-8.286666 -5.1971,-1.039827 -6.32729,-1.141479 -12.73598,-1.145507 -6.16804,-0.0039 -6.94079,0.05493 -11.84404,0.901278 -7.79831,1.346071 -15.7398,4.239075 -22.89258,8.339527 -1.16673,0.668845 -4.44351,2.7412 -7.28173,4.605233 -2.83822,1.864031 -5.273187,3.432427 -5.411032,3.485322 -0.193001,0.07406 -0.365813,-0.397922 -0.75161,-2.052798 l -0.500984,-2.148972 -1.725568,3.447681 c -1.188428,2.374477 -1.879386,3.556558 -2.219711,3.797458 -0.706111,0.49982 -5.508098,2.88054 -7.388435,3.66302 -3.247071,1.35123 -6.335005,2.23729 -9.280776,2.66304 -2.032266,0.29372 -5.902422,0.30328 -7.954952,0.0196 l -1.502602,-0.20765 -0.05487,-0.66291 c -0.03018,-0.3646 -0.123105,-0.66291 -0.206512,-0.66291 -0.0834,0 -0.269712,-0.0453 -0.414015,-0.10068 -0.169387,-0.065 -0.378116,0.0971 -0.588982,0.45747 -0.310486,0.53059 -0.36698,0.55287 -1.143975,0.45111 -1.170663,-0.15332 -5.704873,-1.46374 -11.026678,-3.18679 -15.911109,-5.151581 -19.814821,-6.225275 -24.151054,-6.642615 -4.046712,-0.389472 -8.042252,0.249992 -16.681872,2.669848 -1.36255,0.381634 -2.616576,0.694087 -2.786724,0.69434 -0.251666,3.75e-4 -0.309359,-0.157566 -0.309359,-0.846904 0,-1.236462 -0.6025027,-6.85692 -1.313913,-12.256858 C 7.9272681,79.960813 7.7355824,76.827198 7.9748071,73.127418 8.311801,67.915567 8.8620369,64.718228 10.724936,57.146828 12.057254,51.731874 12.302318,50.987998 13.480073,48.783759 15.629959,44.760116 19.04905,40.383405 23.98458,35.337146 32.17198,26.966062 41.387595,20.173473 50.006107,16.157358 65.681201,8.8529677 84.578112,4.0367474 101.80474,2.9555365 c 4.85262,-0.3045694 13.55594,-0.1339282 17.53998,0.3438967 6.09969,0.7315644 11.73678,1.930323 18.34921,3.9020636 5.21565,1.5552386 17.59141,5.7637492 19.77226,6.7237732 8.83534,3.88937 19.84883,10.649523 24.18023,14.841995 2.19374,2.123374 3.24637,3.516592 4.34599,5.752146 1.75522,3.568421 2.29964,6.129624 3.19528,15.031774 0.61334,6.09647 1.55685,17.277428 1.46768,17.392715 -0.0316,0.0409 -0.25576,-0.111889 -0.49806,-0.339519 -0.24231,-0.22763 -0.48704,-0.367388 -0.54386,-0.310574 -0.1151,0.115113 0.87176,7.233048 1.70648,12.308199 1.37746,8.375033 2.49225,12.799423 4.39156,17.429132 2.75135,6.706692 4.9516,13.218022 5.66725,16.771432 0.21218,1.0536 0.35194,1.9495 0.31056,1.99088 -0.0414,0.0414 -1.22494,-1.13884 -2.63012,-2.62273 z M 182.30259,65.428823 c 0.0708,-0.348874 -0.37445,-3.583939 -1.19225,-8.662058 -1.75405,-10.891738 -1.772,-10.638606 1.12453,-15.856522 2.32602,-4.190169 2.35851,-4.358051 1.23638,-6.387251 -0.42904,-0.775848 -0.97882,-1.559018 -1.22174,-1.740379 -0.40596,-0.303098 -0.48286,-0.307881 -0.95151,-0.0592 -0.40614,0.215507 -0.97093,1.169033 -2.77638,4.687319 -1.24659,2.429226 -2.38987,4.464108 -2.54063,4.521958 -0.23398,0.08979 -5.91333,-0.80147 -6.81592,-1.069621 -0.17231,-0.05119 -0.30912,-0.262824 -0.30883,-0.477742 3.5e-4,-0.212208 0.47758,-2.83454 1.06066,-5.827402 0.58307,-2.992863 1.06014,-5.663791 1.06014,-5.935399 0,-0.29179 -0.17244,-0.655826 -0.42147,-0.889777 -0.44965,-0.422428 -3.77266,-1.663313 -5.00158,-1.867703 -0.6504,-0.108169 -0.76988,-0.07379 -1.00186,0.2883 -0.24605,0.384044 -1.09097,4.366282 -2.15012,10.133836 -0.64005,3.485405 -2.56191,16.954615 -2.56191,17.95501 0,0.988912 0.11562,1.085894 2.26901,1.903341 1.76757,0.670984 2.48051,0.709569 2.98613,0.161609 0.20186,-0.218761 1.15976,-1.750089 2.12866,-3.402951 1.23794,-2.111815 1.9045,-3.075918 2.24219,-3.243075 0.39228,-0.194173 0.80647,-0.199978 2.25479,-0.0316 2.18293,0.253779 2.50746,0.372186 2.75693,1.005902 0.10847,0.275554 0.83672,3.469226 1.61832,7.097048 0.7816,3.627824 1.49642,6.736798 1.58849,6.908831 0.0921,0.172034 0.28481,0.410223 0.42829,0.529309 0.43045,0.357237 2.44302,0.873475 3.28755,0.843278 0.73506,-0.02628 0.79683,-0.06634 0.90213,-0.585055 l 0,0 z M 74.98729,60.757677 c 2.894839,-0.497944 5.546766,-3.156791 6.687001,-6.704442 0.655688,-2.040068 0.978266,-4.209921 0.990835,-6.664935 0.01402,-2.736198 -0.05963,-2.865948 -1.632013,-2.875385 -1.522399,-0.0091 -1.873311,0.282291 -2.848659,2.365757 -1.849518,3.950803 -2.634408,4.628012 -5.726992,4.941285 -3.926479,0.397746 -6.492722,-0.417055 -8.729336,-2.771629 -2.917535,-3.071405 -3.396863,-4.527765 -3.407843,-10.354155 -0.0033,-1.765236 0.07777,-3.174113 0.207674,-3.607679 0.155627,-0.51944 0.692199,-1.197135 1.988738,-2.511795 2.306297,-2.338531 2.705537,-2.522443 5.988429,-2.758591 4.544656,-0.32691 5.401401,0.08146 6.660145,3.174552 0.690633,1.697081 0.968464,2.071881 1.853406,2.500275 0.88207,0.427002 2.617807,0.537114 3.228013,0.20478 0.699479,-0.380956 0.982817,-1.344315 0.99587,-3.386013 0.02336,-3.65346 -1.399732,-7.515721 -3.712486,-10.075662 -1.262539,-1.39748 -4.329339,-3.250973 -6.768903,-4.090949 -3.673186,-1.264727 -8.298736,0.851719 -12.539858,5.737682 -2.454438,2.827625 -3.64111,5.356444 -4.490192,9.568679 -0.349843,1.735542 -0.394132,2.496994 -0.396409,6.815201 -0.0026,4.844304 0.07124,5.712539 0.728679,8.57367 0.390073,1.697563 1.447099,3.890501 2.380549,4.938761 1.155566,1.297694 4.137842,3.8994 5.575106,4.863664 1.295188,0.868946 3.009534,1.60714 4.571353,1.968419 1.884972,0.436032 6.274086,0.513658 8.396893,0.14851 l 0,0 z m 69.79005,-9.458205 c 2.66471,-0.545411 4.94648,-2.129009 5.85983,-4.066849 0.78641,-1.668502 1.80609,-5.695443 1.83764,-7.257265 0.0348,-1.724381 -0.23701,-2.185579 -1.28829,-2.185579 -0.69741,0 -1.18645,0.421116 -2.56613,2.209709 -1.91347,2.480591 -3.27814,3.432636 -5.12869,3.577971 -2.50782,0.196952 -6.35998,-2.010939 -7.7847,-4.461854 -0.81656,-1.404707 -1.02013,-2.572427 -0.9221,-5.289412 0.18052,-5.003507 1.55563,-7.964715 4.33372,-9.332363 1.16414,-0.5731 1.21401,-0.581021 3.65881,-0.581021 3.51813,0 3.59266,0.04993 4.88214,3.270369 1.12429,2.807889 1.93795,3.897952 2.9306,3.926177 1.00537,0.02858 1.68587,-0.635971 2.33336,-2.278666 0.87257,-2.21372 0.80923,-5.097901 -0.15458,-7.0392 -0.65454,-1.318369 -2.4793,-3.870574 -3.85703,-5.394654 -3.23421,-3.577764 -8.68213,-3.193733 -13.02614,0.91823 -3.51439,3.326671 -6.40134,9.369972 -7.25952,15.196488 -0.43628,2.962098 -0.27426,7.396181 0.35434,9.697644 l 0.45869,1.679378 2.60507,2.578304 c 1.79072,1.772325 2.99189,2.804724 3.8425,3.30261 2.75683,1.613639 5.86687,2.148855 8.89048,1.529983 l 0,0 z M 110.27603,50.41976 c 1.81191,-0.373529 3.52748,-1.184305 5.28151,-2.496032 3.45791,-2.58595 5.47061,-5.234185 6.4256,-8.45457 0.71812,-2.421584 1.26498,-7.035688 1.26348,-10.660425 -0.003,-6.200524 -2.49264,-11.219332 -6.75762,-13.620185 -6.6714,-3.755487 -12.44993,-3.811148 -17.413476,-0.167735 -1.77178,1.300546 -5.546289,4.888148 -6.691182,6.359843 -1.731319,2.225516 -2.97888,5.265122 -3.52697,8.593253 -0.416451,2.528768 -0.288443,6.951429 0.259474,8.964919 0.494862,1.818525 1.717684,4.319669 2.741867,5.60818 0.901476,1.134136 3.625628,3.450823 5.122005,4.355884 1.371141,0.829313 3.655952,1.579178 5.419072,1.778514 2.01633,0.227964 6.17069,0.08996 7.87624,-0.261646 l 0,0 z"
       id="path4092"
       inkscape:connector-curvature="0"
       transform="translate(0,832.36149)" />
    <path
       style="fill:#000000;fill-opacity:1;stroke:#000000;stroke-width:0.56568545;stroke-miterlimit:4;stroke-opacity:1;stroke-dasharray:none"
       d="m 95.679041,99.175487 c 0.0049,-0.07292 0.353707,-0.808458 0.775165,-1.634529 l 0.766286,-1.501946 0.196122,0.706451 c 0.341403,1.229772 0.275014,1.424291 -0.688446,2.017113 -0.936179,0.576037 -1.063403,0.626109 -1.049127,0.412911 z"
       id="path4094"
       inkscape:connector-curvature="0"
       transform="translate(0,832.36149)" />
  </g>
</svg>
